<svg width="48.000000" height="48.000000" viewBox="0 0 48 48" fill="none" xmlns="http://www.w3.org/2000/svg" xmlns:xlink="http://www.w3.org/1999/xlink">
	<desc>
			Created with Pixso.
	</desc>
	<defs>
		<clipPath id="clip96_15051">
			<rect id="烤鸡" width="48.000000" height="48.000000" fill="white" fill-opacity="0"/>
		</clipPath>
	</defs>
	<g clip-path="url(#clip96_15051)">
		<path id="path" d="M35.97 15.5C35.45 15.01 34.88 14.59 34.26 14.22L32.8 13.34C31.44 12.52 29.94 11.96 28.39 11.67L27.86 11.58C25.04 11.06 22.32 10.09 19.81 8.72C19.58 7.71 18.79 6.86 17.7 6.61C16.2 6.27 14.71 7.21 14.36 8.72C14.02 10.22 14.96 11.72 16.47 12.06C16.59 12.09 16.72 12.11 16.84 12.12C18.5 13.74 19.9 15.6 21 17.64C24.15 15.76 31.56 12.7 35.97 15.5Z" fill="#A8E066" fill-opacity="0" fill-rule="evenodd"/>
		<path id="path" d="M34.26 14.22L32.8 13.34C31.44 12.52 29.94 11.96 28.39 11.67L27.86 11.58C25.04 11.06 22.32 10.09 19.81 8.72C19.58 7.71 18.79 6.86 17.7 6.61C16.2 6.27 14.71 7.21 14.36 8.72C14.02 10.22 14.96 11.72 16.47 12.06C16.59 12.09 16.72 12.11 16.84 12.12C18.5 13.74 19.9 15.6 21 17.64C24.15 15.76 31.56 12.7 35.97 15.5C35.45 15.01 34.88 14.59 34.26 14.22Z" stroke="#333333" stroke-opacity="1.000000" stroke-width="2.000000" stroke-linejoin="round"/>
		<path id="path" d="M11.3 25.01C11.04 25.3 8 28.65 8 32C8 35.5 9.55 37 11 38C12.44 39 14.72 40 16.61 40C18.5 40 28.5 41 33 40C37.5 39 38 38 40 36C41.08 34.91 41.88 33.39 42.38 32.23C42.88 31.09 43.26 29.92 43.56 28.72C43.92 27.29 44.28 25.23 44 23.5C43.5 20.5 42 18.5 37 16C32.39 13.69 28.35 14.78 27.74 14.97C27.68 14.99 27.63 15 27.58 15.02C26.78 15.31 20.31 17.62 17.57 19.5C14.76 21.41 11.57 24.74 11.3 25.01Z" fill="#000000" fill-opacity="0" fill-rule="nonzero"/>
		<path id="path" d="M8 32C8 35.5 9.55 37 11 38C12.44 39 14.72 40 16.61 40C18.5 40 28.5 41 33 40C37.5 39 38 38 40 36C41.08 34.91 41.88 33.39 42.38 32.23C42.88 31.09 43.26 29.92 43.56 28.72C43.92 27.29 44.28 25.23 44 23.5C43.5 20.5 42 18.5 37 16C32.39 13.69 28.35 14.78 27.74 14.97C27.68 14.99 27.63 15 27.58 15.02C26.78 15.31 20.31 17.62 17.57 19.5C14.76 21.41 11.57 24.74 11.3 25.01C11.04 25.3 8 28.65 8 32Z" stroke="#333333" stroke-opacity="1.000000" stroke-width="2.000000" stroke-linejoin="round"/>
		<path id="path" d="M6.1 20C5.97 19.99 5.85 19.97 5.72 19.95C4.22 19.6 3.28 18.11 3.62 16.6C3.96 15.1 5.46 14.16 6.96 14.5C8.04 14.75 8.83 15.59 9.06 16.61C11.58 17.98 14.3 18.94 17.12 19.46L17.64 19.56C19.2 19.85 20.69 20.41 22.05 21.23L23.52 22.11C24.5 22.69 25.38 23.44 26.12 24.3L26.52 24.78C27.75 26.2 28.31 28.08 28.06 29.95L28.03 30.16C27.86 31.43 27.29 32.61 26.39 33.52L25.93 34C24.41 35.56 22.21 36.28 20.06 35.92C18.39 35.64 16.84 34.87 15.63 33.69L14.89 32.98C14.3 32.4 13.78 31.75 13.36 31.04L11.19 27.39L10.55 26.12C9.42 23.84 7.91 21.78 6.1 20Z" fill="#71A336" fill-opacity="1.000000" fill-rule="nonzero"/>
		<path id="path" d="M5.72 19.95C4.22 19.6 3.28 18.11 3.62 16.6C3.96 15.1 5.46 14.16 6.96 14.5C8.04 14.75 8.83 15.59 9.06 16.61C11.58 17.98 14.3 18.94 17.12 19.46L17.64 19.56C19.2 19.85 20.69 20.41 22.05 21.23L23.52 22.11C24.5 22.69 25.38 23.44 26.12 24.3L26.52 24.78C27.75 26.2 28.31 28.08 28.06 29.95L28.03 30.16C27.86 31.43 27.29 32.61 26.39 33.52L25.93 34C24.41 35.56 22.21 36.28 20.06 35.92C18.39 35.64 16.84 34.87 15.63 33.69L14.89 32.98C14.3 32.4 13.78 31.75 13.36 31.04L11.19 27.39L10.55 26.12C9.42 23.84 7.91 21.78 6.1 20C5.97 19.99 5.85 19.97 5.72 19.95Z" stroke="#333333" stroke-opacity="1.000000" stroke-width="2.000000" stroke-linejoin="round"/>
	</g>
</svg>
