<svg width="48.000000" height="48.000000" viewBox="0 0 48 48" fill="none" xmlns="http://www.w3.org/2000/svg" xmlns:xlink="http://www.w3.org/1999/xlink">
	<desc>
			Created with Pixso.
	</desc>
	<defs>
		<clipPath id="clip96_15038">
			<rect id="薯条" width="48.000000" height="48.000000" fill="white" fill-opacity="0"/>
		</clipPath>
	</defs>
	<g clip-path="url(#clip96_15038)">
		<path id="path" d="M21.98 21.98L22 22C22 22.56 21.56 23 21 23C20.43 23 20 22.56 20 22L20.01 21.98L21.98 21.98ZM14.98 20.98L15 21C15 21.56 14.56 22 14 22C13.43 22 13 21.56 13 21L13.01 20.98L14.98 20.98Z" fill="#000000" fill-opacity="0" fill-rule="nonzero"/>
		<path id="path" d="M21 22L21 12C21 10.89 20.1 10 19 10L16 10C14.89 10 14 10.89 14 12L14 21" stroke="#333333" stroke-opacity="1.000000" stroke-width="2.000000" stroke-linejoin="round" stroke-linecap="round"/>
		<path id="path" d="M35.98 20.98L36 21C36 21.56 35.56 22 35 22C34.43 22 34 21.56 34 21L34.01 20.98L35.98 20.98ZM28.98 21.98L29 22C29 22.56 28.56 23 28 23C27.43 23 27 22.56 27 22L27.01 21.98L28.98 21.98Z" fill="#000000" fill-opacity="0" fill-rule="nonzero"/>
		<path id="path" d="M35 21L35 14C35 12.89 34.1 12 33 12L30 12C28.89 12 28 12.89 28 14L28 22" stroke="#333333" stroke-opacity="1.000000" stroke-width="2.000000" stroke-linejoin="round" stroke-linecap="round"/>
		<path id="path" d="M28.98 21.98L29 22C29 22.56 28.56 23 28 23C27.43 23 27 22.56 27 22L27.01 21.98L28.98 21.98ZM21.98 21.98L22 22C22 22.56 21.56 23 21 23C20.43 23 20 22.56 20 22L20.01 21.98L21.98 21.98Z" fill="#000000" fill-opacity="0" fill-rule="nonzero"/>
		<path id="path" d="M28 22L28 6C28 4.89 27.1 4 26 4L23 4C21.89 4 21 4.89 21 6L21 22" stroke="#333333" stroke-opacity="1.000000" stroke-width="2.000000" stroke-linejoin="round" stroke-linecap="round"/>
		<path id="path" d="M7 18C7 18 14 23 24 23C34 23 41 18 41 18L36.18 44L11.81 44L7 18Z" fill="#71A336" fill-opacity="1.000000" fill-rule="nonzero"/>
		<path id="path" d="M24 23C34 23 41 18 41 18L36.18 44L11.81 44L7 18C7 18 14 23 24 23Z" stroke="#333333" stroke-opacity="1.000000" stroke-width="2.000000" stroke-linejoin="round"/>
		<ellipse id="ellipse" cx="24.000000" cy="33.000000" rx="6.000000" ry="3.000000" fill="#A8E066" fill-opacity="1.000000"/>
		<ellipse id="ellipse" cx="24.000000" cy="33.000000" rx="6.000000" ry="3.000000" stroke="#FFFFFF" stroke-opacity="1.000000" stroke-width="2.000000"/>
	</g>
</svg>
