<svg width="48.000000" height="48.000000" viewBox="0 0 48 48" fill="none" xmlns="http://www.w3.org/2000/svg" xmlns:xlink="http://www.w3.org/1999/xlink">
	<desc>
			Created with Pixso.
	</desc>
	<defs>
		<clipPath id="clip96_15055">
			<rect id="啤酒" width="48.000000" height="48.000000" fill="white" fill-opacity="0"/>
		</clipPath>
	</defs>
	<g clip-path="url(#clip96_15055)">
		<path id="path" d="M16 37.24C16 39.17 16.85 44 28 44C39.14 44 40 39.17 40 37.24C40 35.31 40 16 40 16L28 16L16 16C16 16 16 35.31 16 37.24Z" fill="#71A336" fill-opacity="1.000000" fill-rule="nonzero"/>
		<path id="path" d="M28 44C39.14 44 40 39.17 40 37.24C40 35.31 40 16 40 16L28 16L16 16C16 16 16 35.31 16 37.24C16 39.17 16.85 44 28 44Z" stroke="#333333" stroke-opacity="1.000000" stroke-width="2.000000" stroke-linejoin="round"/>
		<path id="path" d="M24.01 23.02L24 23C24 22.43 24.43 22 25 22C25.56 22 26 22.43 26 23L25.98 23.02L24.01 23.02ZM25.98 36.98L26 37C26 37.56 25.56 38 25 38C24.43 38 24 37.56 24 37L24.01 36.98L25.98 36.98Z" fill="#000000" fill-opacity="0" fill-rule="nonzero"/>
		<path id="path" d="M25 23L25 37" stroke="#FFFFFF" stroke-opacity="1.000000" stroke-width="2.000000" stroke-linejoin="round" stroke-linecap="round"/>
		<path id="path" d="M30.01 23.02L30 23C30 22.43 30.43 22 31 22C31.56 22 32 22.43 32 23L31.98 23.02L30.01 23.02ZM31.98 36.98L32 37C32 37.56 31.56 38 31 38C30.43 38 30 37.56 30 37L30.01 36.98L31.98 36.98Z" fill="#000000" fill-opacity="0" fill-rule="nonzero"/>
		<path id="path" d="M31 23L31 37" stroke="#FFFFFF" stroke-opacity="1.000000" stroke-width="2.000000" stroke-linejoin="round" stroke-linecap="round"/>
		<path id="path" d="" fill="#000000" fill-opacity="0" fill-rule="nonzero"/>
		<path id="path" d="M15.99 16C15.99 16 14 11.5 16.99 9C19.99 6.5 23 8 23 8C23 8 23.99 4 28 4C32 4 32.99 8 32.99 8C32.99 8 36.5 6.5 39 9C41.5 11.5 39.99 16 39.99 16" stroke="#333333" stroke-opacity="1.000000" stroke-width="2.000000" stroke-linejoin="round"/>
		<path id="path" d="" fill="#000000" fill-opacity="0" fill-rule="nonzero"/>
		<path id="path" d="M16 19L6 19C6 19 7 29 8 32C8.99 35 16 34 16 34" stroke="#333333" stroke-opacity="1.000000" stroke-width="2.000000" stroke-linejoin="round"/>
	</g>
</svg>
